<svg xmlns="http://www.w3.org/2000/svg" xmlns:xlink="http://www.w3.org/1999/xlink" style="width: 0; height: 0; visibility: hidden; position: absolute;" aria-hidden="true"><symbol  viewBox='0 0 16 10' id='Icon'>
    <path d="M15.027 2.5a.577.577 0 0 0 0-.813L13.545.214a.566.566 0 0 0-.804 0L8 4.955 3.259.215a.566.566 0 0 0-.804 0L.973 1.686a.577.577 0 0 0 0 .813l6.625 6.616c.223.223.58.223.804 0L15.027 2.5Z" fill="#222"></path>
  </symbol><symbol  viewBox='0 0 28 22' id='burger'>
    <path d="M0 0h28v6H0V0Zm0 8h28v6H0V8Zm0 8h28v6H0v-6Z" fill="#000"></path>
  </symbol><symbol  viewBox='0 0 18 15' id='cursor'>
    <path d="M14.625 14A3.376 3.376 0 0 0 18 10.625v-6.75A3.376 3.376 0 0 0 14.625.5h-2.953a.428.428 0 0 0-.422.422v1.406c0 .246.176.422.422.422h2.953c.598 0 1.125.527 1.125 1.125v6.75c0 .633-.527 1.125-1.125 1.125h-2.953a.427.427 0 0 0-.422.422v1.406c0 .246.176.422.422.422h2.953Zm-1.652-7.066L7.066 1.027C6.54.5 5.625.887 5.625 1.625V5H.844A.833.833 0 0 0 0 5.844v3.375c0 .492.352.844.844.844h4.781v3.374c0 .774.914 1.126 1.441.598l5.907-5.906c.316-.316.316-.844 0-1.195Z" fill="#E63A28"></path>
  </symbol><symbol  viewBox='0 0 26 16' id='eng'>
    <path d="M.984.8h5.872a.46.46 0 0 1 .336.144.428.428 0 0 1 .144.336c0 .139-.048.25-.144.336a.49.49 0 0 1-.336.128H1.352l.16-.272v4.496l-.176-.208h4.8a.46.46 0 0 1 .336.144.46.46 0 0 1 .144.336c0 .139-.048.25-.144.336a.49.49 0 0 1-.336.128H1.368l.144-.16v4.608l-.08-.096h5.424a.46.46 0 0 1 .336.144.46.46 0 0 1 .144.336c0 .139-.048.25-.144.336a.49.49 0 0 1-.336.128H.984a.46.46 0 0 1-.336-.144.46.46 0 0 1-.144-.336V1.28A.46.46 0 0 1 .648.944.46.46 0 0 1 .984.8Zm11.83 2.832c.704 0 1.264.144 1.68.432.426.277.73.661.912 1.152.192.48.288 1.013.288 1.6v4.704a.46.46 0 0 1-.144.336.46.46 0 0 1-.336.144.447.447 0 0 1-.352-.144.49.49 0 0 1-.128-.336V6.864c0-.427-.07-.816-.208-1.168a1.785 1.785 0 0 0-.688-.848c-.31-.213-.72-.32-1.232-.32a2.84 2.84 0 0 0-1.312.32 2.841 2.841 0 0 0-.992.848 1.94 1.94 0 0 0-.384 1.168v4.656a.46.46 0 0 1-.144.336.46.46 0 0 1-.336.144.447.447 0 0 1-.352-.144.49.49 0 0 1-.128-.336V4.352a.49.49 0 0 1 .128-.336.479.479 0 0 1 .352-.144.43.43 0 0 1 .336.144.46.46 0 0 1 .144.336v1.344l-.368.576a2.07 2.07 0 0 1 .32-.976 3.4 3.4 0 0 1 .768-.848c.31-.256.65-.453 1.024-.592.384-.15.768-.224 1.152-.224Zm8.402 0c.48 0 .922.085 1.328.256.405.16.757.373 1.056.64.31.256.55.533.72.832.17.288.256.565.256.832l-.272-.384V4.32a.51.51 0 0 1 .128-.352.479.479 0 0 1 .352-.144c.15 0 .266.048.352.144a.511.511 0 0 1 .128.352v6.928c0 .853-.176 1.573-.528 2.16a3.392 3.392 0 0 1-1.44 1.328c-.598.31-1.28.464-2.048.464a5.27 5.27 0 0 1-1.184-.144 4.878 4.878 0 0 1-1.056-.368c-.288-.15-.448-.304-.48-.464a.436.436 0 0 1-.128-.288.33.33 0 0 1 .144-.224.32.32 0 0 1 .336-.032c.117.064.293.144.528.24.106.032.25.08.432.144.181.064.394.117.64.16.256.053.522.08.8.08.96 0 1.701-.277 2.224-.832.533-.544.8-1.264.8-2.16V9.776l.176.048c-.096.384-.256.72-.48 1.008-.214.288-.47.533-.768.736a3.493 3.493 0 0 1-.976.432c-.342.107-.683.16-1.024.16a3.617 3.617 0 0 1-1.984-.56 4.114 4.114 0 0 1-1.408-1.52c-.342-.64-.512-1.37-.512-2.192 0-.81.17-1.536.512-2.176.352-.65.816-1.157 1.392-1.52a3.617 3.617 0 0 1 1.984-.56Zm.112.896c-.587 0-1.115.15-1.584.448a3.041 3.041 0 0 0-1.088 1.2c-.256.501-.384 1.072-.384 1.712 0 .64.128 1.216.384 1.728.266.512.63.917 1.088 1.216.47.288.997.432 1.584.432.586 0 1.11-.144 1.568-.432a3.07 3.07 0 0 0 1.088-1.184c.266-.512.4-1.099.4-1.76s-.134-1.243-.4-1.744a2.927 2.927 0 0 0-1.088-1.184 2.887 2.887 0 0 0-1.568-.432Z" fill="#222"></path>
  </symbol><symbol  viewBox='0 0 1990 1050' id='engf'>
    <path style="fill:#fff" d="M0 .095h1989.479v1048.199H0z"></path><path style="fill:#ce1124" d="M1989.628 419.525h-875.996V.16H874.514v419.365H.833v209.567h873.681v419.192h239.118V629.092h875.996z"></path><path style="fill:#00247d" d="M.019 122.154v228.222h433.934zM239.417.05l-6.358.289L795.718 297.83V.05z"></path><path style="fill:#ce1124" d="M667.793 348.932.019.105v82.218l508.65 266.609zm654.419 350.428 667.774 348.827v-82.218l-508.65-266.609z"></path><path style="fill:#00247d" d="M.019 927.896V699.673h433.934zM239.417 1050l-6.358-.29 562.659-297.488V1050z"></path><path style="fill:#ce1124" d="M664.378 699.336.456 1048.008l155.273.155 640.626-334.647v-14.18z"></path><path style="fill:#00247d" d="M1990 122.104v228.221h-433.932zM1750.602 0l6.358.288-562.657 297.49V0z"></path><path style="fill:#ce1124" d="M1989.359.488 1840.013.476l-645.14 337.004v11.823h136.491z"></path><path style="fill:#00247d" d="M1990 927.811V699.588h-433.932zm-239.398 122.102 6.358-.288-562.657-297.49v297.778z"></path>
  </symbol><symbol  viewBox='0 0 54 56' id='logo'>
    <path fill-rule="evenodd" clip-rule="evenodd" d="M52.361 20.151c-.716 3.232-1.424 6.463-2.142 9.695-1.452-1.891-2.772-3.888-4.164-5.823.614-2.524 1.167-5.065 1.729-7.605.422-1.954.651-4.047.013-5.981-1.137-3.207-4.775-5.176-7.991-4.372-2.788.612-5.058 2.477-7.481 3.902-6.313 3.76-13.06 6.644-19.65 9.825.555-.981 1.492-1.628 2.267-2.41 4.796-4.517 10.11-8.399 15.329-12.377C33.41 2.633 37.05.573 41.048.543 44.93.346 48.76 2.33 51.128 5.455c1.653 2.225 2.386 5.075 2.291 7.857.043 2.327-.57 4.587-1.058 6.84ZM5.778 45.175c1.116 3.33 4.948 5.317 8.231 4.395 2.62-.603 4.748-2.375 7.034-3.715C27.428 41.983 34.31 39.1 41 35.858c-3.538 3.972-7.785 7.19-11.936 10.446-3.881 2.835-7.483 6.25-12.01 7.984-3.291 1.184-7.118 1.27-10.251-.44C3.473 52.232.912 48.94.368 45.166c-.429-2.39-.201-4.846.328-7.199.888-4.053 1.796-8.097 2.675-12.15a185.76 185.76 0 0 1 4.164 5.872c-.624 2.506-1.15 5.037-1.717 7.56-.435 1.933-.712 4.011-.04 5.926Z" fill="#2B5AE1"></path><path fill-rule="evenodd" clip-rule="evenodd" d="M52.102 47.908c-1.531 3.347-4.544 6.029-8.142 6.717-4.09.956-8.167-.495-12.143-1.349-2.363-.554-4.733-1.086-7.094-1.654 1.779-1.516 3.75-2.776 5.569-4.24 2.738.607 5.455 1.313 8.2 1.9 2.172.429 4.618.465 6.513-.86 2.2-1.59 3.476-4.531 2.909-7.256-.32-1.81-1.176-3.45-2.127-4.988-4.535-7.262-7.785-15.245-11.252-23.066 3.832 3.7 7.027 8.014 10.199 12.3 2.529 3.681 5.563 7.078 7.329 11.242 1.49 3.531 1.782 7.757.04 11.254ZM14.744 5.964c-2.158-.41-4.598-.476-6.468.878C6.418 8.185 5.193 10.5 5.3 12.85c-.018 2.566 1.328 4.849 2.638 6.94 4.134 6.678 7.064 14.008 10.336 21.14.185.438.302.905.414 1.372-3.865-4.248-7.5-8.712-10.815-13.421-2.57-3.647-5.576-7.107-7.067-11.404-1.172-3.385-1.133-7.303.561-10.497 1.334-2.697 3.622-4.93 6.44-5.914 2.836-1.04 5.949-.87 8.85-.208 3.965.924 7.935 1.837 11.898 2.771-1.8 1.51-3.741 2.834-5.605 4.256-2.732-.657-5.463-1.326-8.207-1.921Z" fill="#E63A28"></path>
  </symbol><symbol  viewBox='0 0 20 23' id='search'>
    <path fill-rule="evenodd" clip-rule="evenodd" d="M9.019 0c4.973 0 9.02 4.653 9.02 10.373 0 2.027-.509 3.918-1.386 5.518l2.76 3.175c.782.899.782 2.359 0 3.26-.783.899-2.052.899-2.834 0l-2.76-3.175c-1.392 1.01-3.037 1.594-4.8 1.594C4.045 20.745 0 16.092 0 10.373 0 4.653 4.045 0 9.019 0Zm0 18.44c3.868 0 7.016-3.62 7.016-8.067 0-4.45-3.148-8.068-7.016-8.068-3.869 0-7.015 3.618-7.015 8.068 0 4.448 3.146 8.067 7.015 8.067Z" fill="#E63A28"></path>
  </symbol></svg>